<svg xmlns="http://www.w3.org/2000/svg" width="14" height="14" viewBox="0 0 14 14">
    <path fill="#D5D5EA" fill-rule="nonzero" d="M13.966 6.832a.433.433 0 0 0-.095-.142l-1.496-1.496a.438.438 0 1 0-.62.62l.749.748H7.437V1.495l.781.781a.437.437 0 1 0 .62-.62L7.31.128a.438.438 0 0 0-.62 0L5.193 1.624a.439.439 0 0 0 .62.62l.748-.748V6.56H1.497l.747-.747a.438.438 0 0 0-.62-.62L.13 6.69a.435.435 0 0 0 0 .62l1.528 1.529a.436.436 0 0 0 .62 0 .438.438 0 0 0 0-.62l-.781-.781h5.065v5.065l-.748-.748a.439.439 0 0 0-.62.62l1.497 1.497a.436.436 0 0 0 .62 0l1.528-1.53a.438.438 0 1 0-.62-.62l-.78.782V7.438h5.066l-.781.781a.439.439 0 0 0 .62.62l1.529-1.529c0-.001 0-.003.002-.004A.45.45 0 0 0 14 7a.44.44 0 0 0-.034-.168z"/>
</svg>