<svg xmlns="http://www.w3.org/2000/svg" xmlns:xlink="http://www.w3.org/1999/xlink" width="16" height="16" viewBox="0 0 16 16">
    <defs>
        <path id="a" d="M.248.803h13.673v5.021H.248z"/>
        <path id="c" d="M.584.695h1v4.108h-1z"/>
    </defs>
    <g fill="none" fill-rule="evenodd">
        <g transform="translate(1 5.305)">
            <mask id="b" fill="#fff">
                <use xlink:href="#a"/>
            </mask>
            <path fill="#040404" d="M.748 5.824a.5.5 0 0 1-.452-.713A7.533 7.533 0 0 1 7.084.803a7.533 7.533 0 0 1 6.79 4.308.5.5 0 1 1-.905.425 6.532 6.532 0 0 0-5.885-3.733A6.53 6.53 0 0 0 1.2 5.537a.5.5 0 0 1-.452.287" mask="url(#b)"/>
        </g>
        <g transform="translate(7 2.305)">
            <mask id="d" fill="#fff">
                <use xlink:href="#c"/>
            </mask>
            <path fill="#040404" d="M1.084 4.803a.5.5 0 0 1-.5-.5V1.195a.5.5 0 0 1 1 0v3.108a.5.5 0 0 1-.5.5" mask="url(#d)"/>
        </g>
        <path fill="#040404" d="M10.479 7.426a.502.502 0 0 1-.437-.744l1.35-2.418a.5.5 0 1 1 .873.487l-1.35 2.419a.5.5 0 0 1-.436.256M12.786 8.534a.499.499 0 0 1-.364-.842l1.614-1.72a.5.5 0 1 1 .73.685l-1.616 1.72a.497.497 0 0 1-.364.157M3.114 8.534a.497.497 0 0 1-.364-.158L1.135 6.657a.5.5 0 0 1 .73-.685l1.613 1.72a.499.499 0 0 1-.364.842M5.67 7.426a.5.5 0 0 1-.43-.245L3.84 4.83a.498.498 0 1 1 .86-.51l1.398 2.35a.5.5 0 0 1-.43.756M9.55 10.839a1.466 1.466 0 1 0-2.93 0 1.466 1.466 0 0 0 2.93 0"/>
    </g>
</svg>