<svg width="26" height="26" viewBox="0 0 26 26" fill="none" xmlns="http://www.w3.org/2000/svg">
<path d="M23.625 8C21.885 4.02625 17.5962 1.75 12.9725 1.75C7.12375 1.75 2.31625 6.19 1.75 11.875" stroke="#00B1F2" stroke-width="2.5" stroke-linecap="round" stroke-linejoin="round"/>
<path d="M18.6113 8.5H23.5737C23.6625 8.50016 23.7504 8.48283 23.8324 8.44898C23.9145 8.41513 23.989 8.36543 24.0519 8.30274C24.1147 8.24004 24.1645 8.16558 24.1985 8.0836C24.2325 8.00162 24.25 7.91375 24.25 7.825V2.875M2.375 18C4.115 21.9738 8.40375 24.25 13.0275 24.25C18.8763 24.25 23.6837 19.81 24.25 14.125" stroke="#00B1F2" stroke-width="2.5" stroke-linecap="round" stroke-linejoin="round"/>
<path d="M7.38875 17.5H2.42625C2.3375 17.4998 2.24959 17.5172 2.16755 17.551C2.08552 17.5849 2.01096 17.6346 1.94814 17.6973C1.88533 17.76 1.8355 17.8344 1.8015 17.9164C1.7675 17.9984 1.75 18.0863 1.75 18.175V23.125" stroke="#00B1F2" stroke-width="2.5" stroke-linecap="round" stroke-linejoin="round"/>
</svg>
