<svg xmlns="http://www.w3.org/2000/svg" width="14" height="14" viewBox="0 0 14 14">
    <g fill="none" fill-rule="evenodd">
        <g fill="#666" fill-rule="nonzero">
            <g>
                <path d="M4.9 7.634c0-.173-.14-.313-.314-.313H3.49c-.173 0-.314.14-.314.313V8.73c0 .174.14.314.314.314h1.096c.173 0 .314-.14.314-.314V7.634zM7.64 7.634c0-.173-.141-.313-.315-.313H6.23c-.173 0-.314.14-.314.313V8.73c0 .174.14.314.314.314h1.096c.174 0 .314-.14.314-.314V7.634zM10.378 7.634c0-.173-.14-.313-.313-.313H8.969c-.174 0-.315.14-.315.313V8.73c0 .174.141.314.315.314h1.096c.173 0 .313-.14.313-.314V7.634zM4.9 10.374c0-.174-.14-.314-.314-.314H3.49c-.173 0-.314.14-.314.314v1.095c0 .174.14.314.314.314h1.096c.173 0 .314-.14.314-.314v-1.095zM7.64 10.374c0-.174-.141-.314-.315-.314H6.23c-.173 0-.314.14-.314.314v1.095c0 .174.14.314.314.314h1.096c.174 0 .314-.14.314-.314v-1.095zM10.378 10.374c0-.174-.14-.314-.313-.314H8.969c-.174 0-.315.14-.315.314v1.095c0 .174.141.314.315.314h1.096c.173 0 .313-.14.313-.314v-1.095z" transform="translate(-850.000000, -488.000000) translate(850.000000, 488.000000)"/>
                <path d="M12.338 1.54v1.675c0 .756-.613 1.366-1.37 1.366h-.864c-.757 0-1.379-.61-1.379-1.366v-1.68H4.83v1.68c0 .756-.622 1.366-1.378 1.366h-.865c-.756 0-1.37-.61-1.37-1.366V1.54C.555 1.56.012 2.108.012 2.78v9.81c0 .684.555 1.247 1.24 1.247h11.05c.684 0 1.24-.564 1.24-1.248V2.78c0-.672-.542-1.22-1.204-1.24zm-.401 10.44c0 .295-.24.536-.536.536H2.13c-.297 0-.537-.24-.537-.537V6.912c0-.296.24-.536.536-.536h9.27c.297 0 .537.24.537.536v5.067z" transform="translate(-850.000000, -488.000000) translate(850.000000, 488.000000)"/>
                <path d="M2.583 3.684h.855c.26 0 .47-.21.47-.47V.47c0-.26-.21-.47-.47-.47h-.855c-.26 0-.47.21-.47.47v2.744c0 .26.21.47.47.47zM10.093 3.684h.855c.26 0 .47-.21.47-.47V.47c0-.26-.21-.47-.47-.47h-.855c-.26 0-.47.21-.47.47v2.744c0 .26.21.47.47.47z" transform="translate(-850.000000, -488.000000) translate(850.000000, 488.000000)"/>
            </g>
        </g>
    </g>
</svg>
