<svg xmlns="http://www.w3.org/2000/svg" xmlns:xlink="http://www.w3.org/1999/xlink" width="16" height="16" viewBox="0 0 16 16">
    <defs>
        <path id="a" d="M0 .87h13.92V9H0z"/>
    </defs>
    <g fill="none" fill-rule="evenodd" transform="translate(1 5)">
        <mask id="b" fill="#fff">
            <use xlink:href="#a"/>
        </mask>
        <path fill="#040404" d="M12.284 3.766a7.438 7.438 0 0 0 1.588-2.182.5.5 0 1 0-.904-.425 6.532 6.532 0 0 1-5.884 3.733A6.532 6.532 0 0 1 1.2 1.158a.499.499 0 1 0-.904.426A7.46 7.46 0 0 0 1.744 3.63L.136 5.343a.499.499 0 1 0 .728.685l1.614-1.72c.004-.004.006-.01.01-.015.47.364.97.684 1.51.93L2.84 7.17a.499.499 0 1 0 .86.511l1.25-2.104a7.488 7.488 0 0 0 1.634.28V8.5a.5.5 0 1 0 1 0V5.856a7.477 7.477 0 0 0 1.607-.269l1.2 2.15a.501.501 0 0 0 .68.192.5.5 0 0 0 .192-.68L10.14 5.233c.491-.22.947-.504 1.38-.82l1.517 1.615a.497.497 0 0 0 .706.022.499.499 0 0 0 .022-.707l-1.48-1.577z" mask="url(#b)"/>
    </g>
</svg>
